<svg width="157" height="26" viewBox="0 0 157 26" fill="none" xmlns="http://www.w3.org/2000/svg">
<g clip-path="url(#clip0_27_220)">
<path d="M106.927 4.51002C105.412 4.51127 103.932 4.96163 102.673 5.80416C101.414 6.64669 100.433 7.84356 99.854 9.24349C99.2752 10.6434 99.1244 12.1835 99.4207 13.6691C99.717 15.1548 100.447 16.5192 101.519 17.5899C102.59 18.6606 103.955 19.3896 105.441 19.6847C106.927 19.9798 108.467 19.8277 109.867 19.2477C111.266 18.6677 112.462 17.6858 113.304 16.4261C114.145 15.1665 114.594 13.6856 114.594 12.1707C114.595 11.164 114.397 10.1671 114.012 9.23698C113.626 8.30688 113.062 7.46187 112.349 6.75031C111.637 6.03875 110.792 5.47462 109.861 5.0902C108.931 4.70579 107.934 4.50863 106.927 4.51002ZM106.927 16.6026C106.051 16.6026 105.194 16.3426 104.465 15.8557C103.736 15.3687 103.168 14.6765 102.833 13.8667C102.497 13.0569 102.409 12.1658 102.58 11.3061C102.751 10.4464 103.174 9.65676 103.793 9.03696C104.413 8.41716 105.203 7.99507 106.062 7.82407C106.922 7.65307 107.813 7.74083 108.623 8.07626C109.433 8.4117 110.125 8.97974 110.612 9.70855C111.099 10.4374 111.359 11.2942 111.359 12.1707C111.359 13.3461 110.892 14.4734 110.061 15.3045C109.23 16.1356 108.102 16.6026 106.927 16.6026Z" fill="#FF6700"/>
<path d="M120.393 4.50989C118.444 4.50787 116.567 5.25245 115.149 6.59073C115.108 6.6344 115.076 6.68644 115.056 6.74335C115.037 6.80027 115.029 6.86074 115.035 6.92072C115.04 6.98069 115.059 7.03877 115.089 7.09106C115.119 7.14334 115.159 7.18862 115.208 7.22385L117.238 8.63148C117.312 8.68043 117.399 8.70513 117.487 8.7021C117.575 8.69907 117.66 8.66847 117.73 8.6146C118.496 8.03349 119.432 7.71988 120.393 7.7219C121.094 7.72436 121.785 7.89306 122.408 8.21415C123.031 8.53524 123.569 8.99955 123.978 9.56896C124.387 10.1384 124.655 10.7966 124.76 11.4897C124.865 12.1828 124.804 12.8909 124.582 13.5558C124.36 14.2208 123.984 14.8237 123.484 15.3149C122.984 15.8062 122.375 16.1719 121.706 16.3819C121.037 16.5919 120.328 16.6403 119.637 16.5231C118.946 16.4059 118.292 16.1264 117.73 15.7076C117.66 15.6534 117.576 15.6225 117.487 15.619C117.399 15.6156 117.312 15.64 117.238 15.6886L115.206 17.0941C115.157 17.1292 115.116 17.1744 115.086 17.2266C115.056 17.2788 115.037 17.3368 115.032 17.3968C115.026 17.4568 115.033 17.5173 115.052 17.5743C115.072 17.6313 115.104 17.6835 115.145 17.7273C116.055 18.5846 117.16 19.2062 118.366 19.5379C119.571 19.8695 120.839 19.9011 122.059 19.6299C123.279 19.3587 124.415 18.7929 125.366 17.9819C126.317 17.1709 127.056 16.1395 127.517 14.9775C127.977 13.8155 128.147 12.5584 128.01 11.3159C127.873 10.0733 127.435 8.88316 126.732 7.84924C126.029 6.81533 125.084 5.96911 123.98 5.38444C122.875 4.79978 121.643 4.49445 120.393 4.49512V4.50989Z" fill="#FF6700"/>
<path d="M115.227 15.7478C115.202 15.7664 115.171 15.776 115.139 15.775C115.108 15.7741 115.078 15.7626 115.053 15.7425C115.029 15.7224 115.012 15.6948 115.006 15.664C114.999 15.6332 115.003 15.6011 115.016 15.5727C115.469 14.4941 115.702 13.3362 115.702 12.1665C115.702 10.9968 115.469 9.83884 115.016 8.76032C115.003 8.7319 114.999 8.69976 115.006 8.66899C115.012 8.63821 115.029 8.61058 115.053 8.59046C115.078 8.57034 115.108 8.55889 115.139 8.55793C115.171 8.55697 115.202 8.56655 115.227 8.58515L120.007 11.8964C120.052 11.9268 120.088 11.9676 120.113 12.0152C120.138 12.0628 120.151 12.1158 120.151 12.1697C120.151 12.2235 120.138 12.2765 120.113 12.3241C120.088 12.3717 120.052 12.4125 120.007 12.4429L115.227 15.7478Z" fill="#007F89"/>
<path d="M7.13523 4.92987C11.0795 4.92987 13.9286 7.68182 13.9286 12.1432C13.9286 16.6045 11.0795 19.4156 7.13523 19.4156C4.04773 19.4156 1.94578 17.6703 1.16705 15.5177V19.2045H0V0H1.16705V8.82354C1.99854 6.64351 4.07305 4.92987 7.13523 4.92987ZM6.96429 5.94286C3.69529 5.94286 1.1776 8.38247 1.1776 12.1432C1.16705 15.9588 3.68474 18.3709 6.96429 18.3709C10.3894 18.3709 12.751 16.0369 12.751 12.1432C12.751 8.24951 10.3789 5.94286 6.96429 5.94286Z" fill="#007F89"/>
<path d="M17.3348 19.2046H16.1677V5.11141H17.3348V8.01952C18.0354 5.97033 19.7744 4.82861 22.5517 4.82861V6.04842H22.1591C19.7469 6.04842 17.3327 7.2429 17.3327 11.0817L17.3348 19.2046Z" fill="#007F89"/>
<path d="M30.0245 4.92993C33.1374 4.92993 35.214 6.66889 35.9927 8.79617V5.11142H37.1598V19.2046H35.9927V15.4924C35.214 17.645 33.112 19.4156 30.0245 19.4156C26.0802 19.4156 23.2249 16.5877 23.2249 12.1496C23.2249 7.71142 26.0802 4.92993 30.0245 4.92993ZM30.1807 5.94292C26.7809 5.94292 24.4193 8.25168 24.4193 12.1432C24.4193 16.0348 26.7809 18.371 30.1786 18.371C33.4729 18.371 35.9906 15.9588 35.9906 12.1432C35.9927 8.38253 33.475 5.94292 30.1786 5.94292H30.1807Z" fill="#007F89"/>
<path d="M51.0166 11.0289C51.0166 7.60369 49.1172 5.8394 46.2956 5.8394C43.3622 5.8394 41.2856 7.68177 41.2856 11.5987V19.2045H40.1185V5.11132H41.2856V8.09541C42.1171 5.91538 44.1409 4.82642 46.4771 4.82642C49.6153 4.82642 52.1583 6.72577 52.1583 10.9465V19.2045H51.0166V11.0289Z" fill="#007F89"/>
<path d="M61.0599 4.92987C64.0144 4.92987 66.1987 6.59075 67.0281 8.7961V0H68.1951V19.2045H67.0281V15.4649C66.2493 17.6703 64.1558 19.4156 61.0599 19.4156C57.1156 19.4156 54.2623 16.5877 54.2623 12.1495C54.2623 7.71136 57.1156 4.92987 61.0599 4.92987ZM61.2161 5.94286C57.8162 5.94286 55.4547 8.25162 55.4547 12.1432C55.4547 16.0347 57.8247 18.3709 61.2161 18.3709C64.5104 18.3709 67.0281 15.9588 67.0281 12.1432C67.0281 8.38247 64.5104 5.94286 61.2161 5.94286Z" fill="#007F89"/>
<path d="M75.8516 19.4157C72.7641 19.4157 70.5756 18.0144 70.3245 15.4207H71.5189C71.7004 17.2103 73.1798 18.4048 75.8516 18.4048C78.057 18.4048 79.3548 17.1069 79.3548 15.5769C79.3548 11.6832 70.7149 13.9413 70.7149 8.5957C70.7149 6.62248 72.6332 4.93628 75.3852 4.93628C78.3165 4.93628 80.2644 6.46842 80.4185 9.08742H79.2514C79.148 7.32524 77.8501 5.92183 75.3599 5.92183C73.3086 5.92183 71.8819 7.14164 71.8819 8.5957C71.8819 12.9558 80.4459 10.6449 80.4966 15.5769C80.4966 17.7759 78.5508 19.4157 75.8516 19.4157Z" fill="#007F89"/>
<path d="M90.5147 4.67028C94.2775 4.67028 97.2342 7.57629 97.2342 11.9891C97.2342 16.4019 94.2796 19.4346 90.5147 19.4346C89.5656 19.4391 88.6272 19.2346 87.766 18.8356C86.9049 18.4366 86.1422 17.8528 85.5321 17.1258V26H82.5775V4.89609H85.5321V7.00648C86.1284 6.26176 86.8878 5.66386 87.7516 5.25883C88.6155 4.8538 89.5608 4.65244 90.5147 4.67028ZM89.8647 7.24073C87.6593 7.24073 85.5321 8.97758 85.5321 12.0398C85.5321 15.1019 87.6593 16.8662 89.8647 16.8662C92.07 16.8662 94.2248 15.0766 94.2248 11.9891C94.2248 8.90161 92.0975 7.24073 89.8647 7.24073Z" fill="#007F89"/>
<path d="M136.055 19.4347C132.63 19.4347 130.217 17.4108 130.087 14.8172H133.149C133.252 15.9842 134.369 16.9444 136.002 16.9444C137.716 16.9444 138.623 16.2185 138.623 15.2329C138.623 12.4303 130.321 14.0384 130.321 8.79622C130.321 6.51278 132.448 4.67041 135.82 4.67041C139.064 4.67041 141.194 6.40937 141.348 9.26473H138.393C138.288 8.01749 137.338 7.15434 135.719 7.15434C134.101 7.15434 133.305 7.80856 133.305 8.7709C133.305 11.6516 141.375 10.0371 141.535 15.2055C141.531 17.6198 139.429 19.4347 136.055 19.4347Z" fill="#007F89"/>
<path d="M143.424 0H146.379V6.56542C147.364 5.37094 148.974 4.66607 150.811 4.66607C154.001 4.66607 156.494 6.77646 156.494 10.7651V19.2045H153.56V11.2104C153.56 8.58928 152.134 7.24075 149.973 7.24075C147.812 7.24075 146.366 8.58928 146.366 11.2104V19.2045H143.411L143.424 0Z" fill="#007F89"/>
</g>
<defs>
<clipPath id="clip0_27_220">
<rect width="156.504" height="26" fill="white"/>
</clipPath>
</defs>
</svg>
